/* XPM */
static char * C:\data\git\riecoin\share\pixmaps\riecoin32_xpm[] = {
"32 32 683 2",
"  	c None",
". 	c #C1BEB7",
"+ 	c #C6C2BB",
"@ 	c #C8C4BC",
"# 	c #C9C6BC",
"$ 	c #C8C6BC",
"% 	c #C9C5BC",
"& 	c #C6C3BB",
"* 	c #C1BEB6",
"= 	c #C6C3BC",
"- 	c #C8C5BC",
"; 	c #C1C0B0",
"> 	c #B4B49D",
", 	c #A9AA8D",
"' 	c #A3A582",
") 	c #A1A47F",
"! 	c #C1BFB1",
"~ 	c #C8C6BD",
"{ 	c #C5C4BB",
"] 	c #C7C5BC",
"^ 	c #B4B59F",
"/ 	c #A1A584",
"( 	c #9A9F76",
"_ 	c #A0A77D",
": 	c #A8AF87",
"< 	c #ACB28C",
"[ 	c #ADB38D",
"} 	c #AEB38D",
"| 	c #ADB28C",
"1 	c #A9AF86",
"2 	c #A0A67C",
"3 	c #9A9F75",
"4 	c #A1A583",
"5 	c #B5B59F",
"6 	c #C8C5BD",
"7 	c #C6C2BA",
"8 	c #CAC7C0",
"9 	c #BBBBAA",
"0 	c #9EA382",
"a 	c #929A6F",
"b 	c #A2AA82",
"c 	c #A7AE89",
"d 	c #A9B18C",
"e 	c #B0B795",
"f 	c #B6BC9E",
"g 	c #B9BFA3",
"h 	c #AAB18D",
"i 	c #A8AF8A",
"j 	c #929A6E",
"k 	c #9EA381",
"l 	c #BBBCAB",
"m 	c #CAC8BF",
"n 	c #CCCAC3",
"o 	c #ACB098",
"p 	c #8E9771",
"q 	c #95A076",
"r 	c #9EA982",
"s 	c #A9B291",
"t 	c #BFC5AE",
"u 	c #D2D7C1",
"v 	c #BFDFD8",
"w 	c #A3E0E7",
"x 	c #96E0EB",
"y 	c #97E0EB",
"z 	c #A4DFE7",
"A 	c #B7DDDC",
"B 	c #C5D3C7",
"C 	c #BEC4AC",
"D 	c #A9B28F",
"E 	c #A0AA84",
"F 	c #95A075",
"G 	c #8E9770",
"H 	c #ADB099",
"I 	c #CCC9C2",
"J 	c #CCCAC4",
"K 	c #A5AB92",
"L 	c #828F65",
"M 	c #93A079",
"N 	c #9AA782",
"O 	c #BAC2AB",
"P 	c #CDDCC6",
"Q 	c #D2EDBE",
"R 	c #82E4D1",
"S 	c #51DFDD",
"T 	c #59E1D1",
"U 	c #68E4C7",
"V 	c #6DE5C3",
"W 	c #68E4C8",
"X 	c #64E2D2",
"Y 	c #6CE0E1",
"Z 	c #8DE0EA",
"` 	c #BBD7D0",
" .	c #B9C0A8",
"..	c #9BA681",
"+.	c #94A078",
"@.	c #838F65",
"#.	c #A7AC93",
"$.	c #CCC9C4",
"%.	c #CBC9C2",
"&.	c #AAB09A",
"*.	c #7B8B61",
"=.	c #8B9B74",
"-.	c #9CAA89",
";.	c #C2CBBB",
">.	c #B8E7D2",
",.	c #9DEABA",
"'.	c #8FEBAE",
").	c #77E7BC",
"!.	c #7DE8B8",
"~.	c #68E4C5",
"{.	c #4DE0D6",
"].	c #48DFD9",
"^.	c #51E0D3",
"/.	c #69E4C5",
"(.	c #7BE8B9",
"_.	c #77E7BD",
":.	c #7DE4D2",
"<.	c #9AE0E7",
"[.	c #C2C9B7",
"}.	c #9BA886",
"|.	c #8C9C74",
"1.	c #7C8B61",
"2.	c #ABB19B",
"3.	c #CBCAC2",
"4.	c #C9C7BF",
"5.	c #BABCAE",
"6.	c #7C8D67",
"7.	c #7F936B",
"8.	c #95A584",
"9.	c #BCCDC0",
"0.	c #9CE5D7",
"a.	c #7AE7BC",
"b.	c #9DEDA5",
"c.	c #7AE7BB",
"d.	c #79E5D5",
"e.	c #69DADD",
"f.	c #47DFEF",
"g.	c #27D9EC",
"h.	c #28D9EC",
"i.	c #28DAEC",
"j.	c #2BDAEA",
"k.	c #4EE0D5",
"l.	c #79E7BB",
"m.	c #7BE7BF",
"n.	c #8DE1E4",
"o.	c #BFCBBB",
"p.	c #93A380",
"q.	c #80936A",
"r.	c #7D8D67",
"s.	c #BBBDAE",
"t.	c #C6C4BE",
"u.	c #CAC8C1",
"v.	c #8A997B",
"w.	c #71895F",
"x.	c #819772",
"y.	c #BAC7B6",
"z.	c #88E1E2",
"A.	c #78E7BC",
"B.	c #9DEEA5",
"C.	c #83E9BC",
"D.	c #80D2C7",
"E.	c #A2B89A",
"F.	c #A6CBB7",
"G.	c #62E1E7",
"H.	c #32DBE6",
"I.	c #33DBE6",
"J.	c #35DCE4",
"K.	c #74E6BE",
"L.	c #76E7BD",
"M.	c #92E2E0",
"N.	c #BAC4B1",
"O.	c #819670",
"P.	c #72895E",
"Q.	c #8C9A7C",
"R.	c #C9C8C0",
"S.	c #AEB5A4",
"T.	c #668058",
"U.	c #718B65",
"V.	c #A7B59F",
"W.	c #9CE1E0",
"X.	c #64E3CA",
"Y.	c #9AEDA7",
"Z.	c #7AE8BA",
"`.	c #83D5C9",
" +	c #929F74",
".+	c #8DBCA2",
"++	c #66E4E5",
"@+	c #3CDDE0",
"#+	c #3EDDE0",
"$+	c #59E1E3",
"%+	c #6FDCDA",
"&+	c #78D8D3",
"*+	c #74DBD7",
"=+	c #97EBC1",
"-+	c #7DE7BD",
";+	c #A4E0DD",
">+	c #A3B199",
",+	c #748D66",
"'+	c #678158",
")+	c #B0B6A6",
"!+	c #C9C7C0",
"~+	c #83967B",
"{+	c #618059",
"]+	c #7C9575",
"^+	c #B2D3C9",
"/+	c #62E0DB",
"(+	c #78E7BB",
"_+	c #95ECAA",
":+	c #6EE5CC",
"<+	c #96C0AA",
"[+	c #788C5D",
"}+	c #8ADCD0",
"|+	c #4BE0D7",
"1+	c #46DFDA",
"2+	c #47DFD9",
"3+	c #6BE3E0",
"4+	c #85CEC0",
"5+	c #8FB092",
"6+	c #819469",
"7+	c #778A59",
"8+	c #7D8F61",
"9+	c #8FB091",
"0+	c #B2E5B5",
"a+	c #8AE5C8",
"b+	c #B5CEC2",
"c+	c #799270",
"d+	c #638159",
"e+	c #86987D",
"f+	c #CCCBC3",
"g+	c #C0C3B8",
"h+	c #617F5D",
"i+	c #5C7E59",
"j+	c #9CAE98",
"k+	c #9AE2D9",
"l+	c #8CEBAF",
"m+	c #59E2D5",
"n+	c #93C4AE",
"o+	c #6F885D",
"p+	c #A2D7B4",
"q+	c #84E9B4",
"r+	c #81E9B6",
"s+	c #7CE7C0",
"t+	c #85D9CB",
"u+	c #95B9A1",
"v+	c #94AA8B",
"w+	c #90B395",
"x+	c #8EB294",
"y+	c #80946C",
"z+	c #5F7947",
"A+	c #9BB58D",
"B+	c #95EABF",
"C+	c #A6E2D6",
"D+	c #96A991",
"E+	c #5F815B",
"F+	c #64815E",
"G+	c #C5C5BE",
"H+	c #A6B1A2",
"I+	c #517754",
"J+	c #5A7F5D",
"K+	c #B0C6B8",
"L+	c #78E2D2",
"M+	c #5BE2CD",
"N+	c #82E9B6",
"O+	c #70E6C1",
"P+	c #9DDFBF",
"Q+	c #849D7D",
"R+	c #86A689",
"S+	c #8CD2C0",
"T+	c #91DECB",
"U+	c #97C4A4",
"V+	c #B0C2AD",
"W+	c #8ECAB1",
"X+	c #83E3D1",
"Y+	c #6CE5D0",
"Z+	c #6DE5D0",
"`+	c #8BD1BB",
" @	c #829A78",
".@	c #5E7C51",
"+@	c #8CA485",
"@@	c #9EE6B9",
"#@	c #91E5C8",
"$@	c #ADC0B0",
"%@	c #5B7F5C",
"&@	c #547954",
"*@	c #A8B3A3",
"=@	c #C5C3BC",
"-@	c #CAC9C3",
";@	c #8C9F8C",
">@	c #4B7654",
",@	c #64876A",
"'@	c #B6D7CA",
")@	c #6CE4C9",
"!@	c #64E4C8",
"~@	c #86EAB3",
"{@	c #89EAB1",
"]@	c #85E9B3",
"^@	c #86E9B6",
"/@	c #9ED9B7",
"(@	c #8FB498",
"_@	c #94AC94",
":@	c #6B8D6F",
"<@	c #8CAF94",
"[@	c #A6E1B9",
"}@	c #80E8B9",
"|@	c #66E4C6",
"1@	c #6CE5C8",
"2@	c #91D8C0",
"3@	c #96CEB5",
"4@	c #90DAC2",
"5@	c #7DE8BE",
"6@	c #85E7BD",
"7@	c #B7D2C4",
"8@	c #5F8364",
"9@	c #4D7653",
"0@	c #8FA18E",
"a@	c #CCCCC6",
"b@	c #79937E",
"c@	c #477556",
"d@	c #709179",
"e@	c #B3DFCE",
"f@	c #70E5C2",
"g@	c #6EE6C2",
"h@	c #90EBAD",
"i@	c #7CE8B9",
"j@	c #73E6BE",
"k@	c #97EAC1",
"l@	c #9BC1A8",
"m@	c #8AAD97",
"n@	c #96E2C7",
"o@	c #75E7BD",
"p@	c #71E6C0",
"q@	c #72E6C0",
"r@	c #73E6C0",
"s@	c #72E6BF",
"t@	c #76E7BC",
"u@	c #82E8B8",
"v@	c #B7DBCA",
"w@	c #688B70",
"x@	c #497555",
"y@	c #7C947F",
"z@	c #CCCBC5",
"A@	c #CDCDC7",
"B@	c #6E8D78",
"C@	c #437457",
"D@	c #769682",
"E@	c #B1E1CB",
"F@	c #7BE8BA",
"G@	c #7EE8B7",
"H@	c #79E8BB",
"I@	c #7DE8B9",
"J@	c #9AD5B4",
"K@	c #8DAB9C",
"L@	c #96D7B9",
"M@	c #7FE8B7",
"N@	c #82E9B7",
"O@	c #B7DFCA",
"P@	c #6D9079",
"Q@	c #457457",
"R@	c #728F7A",
"S@	c #CDCDC6",
"T@	c #CECEC8",
"U@	c #6B8C79",
"V@	c #3F7258",
"W@	c #739582",
"X@	c #B5E2C8",
"Y@	c #83E9B5",
"Z@	c #86E9B8",
"`@	c #84E9B9",
" #	c #9DE7C2",
".#	c #7AA796",
"+#	c #87B9A3",
"@#	c #92EABC",
"##	c #87E9B6",
"$#	c #85EAB3",
"%#	c #BADFC7",
"&#	c #698E79",
"*#	c #417358",
"=#	c #708F7B",
"-#	c #CFCEC9",
";#	c #739282",
">#	c #3B705A",
",#	c #668C7B",
"'#	c #BBDFC6",
")#	c #8EEBAF",
"!#	c #8DEBAF",
"~#	c #8CE9BB",
"{#	c #9ED3BE",
"]#	c #8FC1B0",
"^#	c #91C1AF",
"/#	c #77A99B",
"(#	c #4A8275",
"_#	c #8FB5AA",
":#	c #95C3B0",
"<#	c #A7E1BD",
"[#	c #84E9B5",
"}#	c #90ECAD",
"|#	c #91ECAD",
"1#	c #85E9B6",
"2#	c #BDDBC4",
"3#	c #5E8673",
"4#	c #3D7159",
"5#	c #769483",
"6#	c #849F92",
"7#	c #376F5C",
"8#	c #527F6E",
"9#	c #BED7C1",
"0#	c #9BECAB",
"a#	c #97EDA9",
"b#	c #94E9BC",
"c#	c #ABD9C0",
"d#	c #9ECBBA",
"e#	c #8AB4AB",
"f#	c #3D7C75",
"g#	c #76A398",
"h#	c #A7CDB6",
"i#	c #A1CDB7",
"j#	c #9AE3C6",
"k#	c #9BEDA6",
"l#	c #8EE9B6",
"m#	c #BBD1BD",
"n#	c #4C7A68",
"o#	c #39705B",
"p#	c #88A194",
"q#	c #C9C9C2",
"r#	c #9FB2A9",
"s#	c #366F5E",
"t#	c #3B7060",
"u#	c #ACC1B2",
"v#	c #AEEBAD",
"w#	c #A3EEA4",
"x#	c #A3D6B8",
"y#	c #87B4A9",
"z#	c #7DB0A9",
"A#	c #56918F",
"B#	c #236F6D",
"C#	c #6C9D9A",
"D#	c #87B4A8",
"E#	c #9ED4BC",
"F#	c #7AE7BE",
"G#	c #83E9B4",
"H#	c #96ECA9",
"I#	c #A4EFA1",
"J#	c #A5EFA0",
"K#	c #A5E8B8",
"L#	c #A3B9AB",
"M#	c #386D5D",
"N#	c #39705F",
"O#	c #A3B4AA",
"P#	c #C7C7C1",
"Q#	c #BDC5BF",
"R#	c #43776A",
"S#	c #2E675A",
"T#	c #829F95",
"U#	c #C3E7B8",
"V#	c #AAF09E",
"W#	c #9EE4BF",
"X#	c #8AD1C1",
"Y#	c #72A7A5",
"Z#	c #227275",
"`#	c #2B777A",
" $	c #8BBAAF",
".$	c #9CD6B3",
"+$	c #A7E5BA",
"@$	c #92ECAD",
"#$	c #A6EF9F",
"$$	c #AEF19A",
"%$	c #AFF19A",
"&$	c #B0F19A",
"*$	c #A1EEA2",
"=$	c #C3E4BC",
"-$	c #78988D",
";$	c #2F685A",
">$	c #46796B",
",$	c #BFC6C0",
"'$	c #CECECA",
")$	c #6D938A",
"!$	c #2B685D",
"~$	c #4A7A70",
"{$	c #B1CDBB",
"]$	c #92E7B9",
"^$	c #88D7C1",
"/$	c #4A8D92",
"($	c #136C75",
"_$	c #66A19B",
":$	c #B5E3AB",
"<$	c #B8F297",
"[$	c #B8F294",
"}$	c #B9F294",
"|$	c #B9F394",
"1$	c #BAF394",
"2$	c #9FE8B6",
"3$	c #B2C6B2",
"4$	c #427469",
"5$	c #2D695D",
"6$	c #71958B",
"7$	c #CFD1CB",
"8$	c #D0CEC9",
"9$	c #A4B7B1",
"0$	c #306C64",
"a$	c #25625A",
"b$	c #7E9C95",
"c$	c #C5E4BB",
"d$	c #C4F09B",
"e$	c #8EBDAF",
"f$	c #32828D",
"g$	c #35828B",
"h$	c #35828A",
"i$	c #7BABA9",
"j$	c #B9DAB1",
"k$	c #C8EFA1",
"l$	c #C3F48E",
"m$	c #C4F48E",
"n$	c #C4F48D",
"o$	c #91EBAD",
"p$	c #8CEAB2",
"q$	c #CFE4B7",
"r$	c #75968E",
"s$	c #276259",
"t$	c #336E65",
"u$	c #A7B8B2",
"v$	c #CDCDC9",
"w$	c #CECFCA",
"x$	c #6A938D",
"y$	c #23645E",
"z$	c #326A64",
"A$	c #9BB1A7",
"B$	c #D3E9AE",
"C$	c #C3E79F",
"D$	c #9CDFB4",
"E$	c #9ADFB5",
"F$	c #C5E69B",
"G$	c #C5E79B",
"H$	c #D0ECA0",
"I$	c #D1F297",
"J$	c #CDF688",
"K$	c #CEF688",
"L$	c #CEF687",
"M$	c #94ECAA",
"N$	c #CAE7B1",
"O$	c #93ABA3",
"P$	c #2B655F",
"Q$	c #25655E",
"R$	c #6E958E",
"S$	c #B3C1BC",
"T$	c #417773",
"U$	c #1E5E5B",
"V$	c #447672",
"W$	c #A4B9A9",
"X$	c #D7EBA5",
"Y$	c #BDF392",
"Z$	c #8EEBAE",
"`$	c #98EDA8",
" %	c #D3F784",
".%	c #D7F882",
"+%	c #D8F882",
"@%	c #D8F881",
"#%	c #C0F490",
"$%	c #8AEAB0",
"%%	c #8EEAB0",
"&%	c #CDE8AE",
"*%	c #9DB2A6",
"=%	c #3C706C",
"-%	c #20605B",
";%	c #457A75",
">%	c #B5C2BD",
",%	c #CCCCC8",
"'%	c #D4D4CF",
")%	c #97B1AE",
"!%	c #2B6866",
"~%	c #1B5A5A",
"{%	c #417472",
"]%	c #99AFA5",
"^%	c #DCE7AB",
"/%	c #CFF193",
"(%	c #92ECAC",
"_%	c #D2F785",
":%	c #CAF58A",
"<%	c #A5E9B0",
"[%	c #DAE5AE",
"}%	c #92A9A2",
"|%	c #3A6F6C",
"1%	c #1C5B5A",
"2%	c #2F6B68",
"3%	c #9AB3AF",
"4%	c #D2D2CD",
"5%	c #D5D5D1",
"6%	c #8DACA9",
"7%	c #286666",
"8%	c #17585A",
"9%	c #286364",
"0%	c #759693",
"a%	c #BFCBAD",
"b%	c #E1EAA2",
"c%	c #C7EE9C",
"d%	c #A0ECA8",
"e%	c #8BEAB1",
"f%	c #80E8B7",
"g%	c #88E9B3",
"h%	c #97EBAE",
"i%	c #B7EBA7",
"j%	c #D9E7A9",
"k%	c #B9C6AB",
"l%	c #6F918F",
"m%	c #235F60",
"n%	c #18595A",
"o%	c #2B6868",
"p%	c #8FADAB",
"q%	c #D5D6D2",
"r%	c #95B1B0",
"s%	c #397273",
"t%	c #14595C",
"u%	c #145659",
"v%	c #386D6F",
"w%	c #729492",
"x%	c #A7B8A8",
"y%	c #CBD3AE",
"z%	c #D9DFAA",
"A%	c #DAE3A8",
"B%	c #D9E3A9",
"C%	c #D7DEAB",
"D%	c #C9D1AE",
"E%	c #A3B5A6",
"F%	c #6E908F",
"G%	c #336A6B",
"H%	c #155A5D",
"I%	c #3C7475",
"J%	c #98B3B1",
"K%	c #D4D5D1",
"L%	c #B1C2C0",
"M%	c #608D8E",
"N%	c #1C5F63",
"O%	c #11545A",
"P%	c #115359",
"Q%	c #1C5A5F",
"R%	c #32696C",
"S%	c #457578",
"T%	c #507D7E",
"U%	c #507C7E",
"V%	c #447477",
"W%	c #30676B",
"X%	c #1B595E",
"Y%	c #12555A",
"Z%	c #1D6064",
"`%	c #628F90",
" &	c #B3C3C1",
".&	c #D4D4D0",
"+&	c #D1D1CD",
"@&	c #CFD1CE",
"#&	c #9FB7B7",
"$&	c #5D8A8D",
"%&	c #27656B",
"&&	c #12565E",
"*&	c #0E535A",
"=&	c #0E5159",
"-&	c #0E5158",
";&	c #0F535A",
">&	c #13575E",
",&	c #28676C",
"'&	c #5F8C8F",
")&	c #A1B9B8",
"!&	c #D0D2CE",
"~&	c #CFCFCB",
"{&	c #D2D2CE",
"]&	c #D1D3CF",
"^&	c #BBC8C7",
"/&	c #96B1B2",
"(&	c #71989B",
"_&	c #59878B",
":&	c #4C7F84",
"<&	c #59888C",
"[&	c #73999C",
"}&	c #97B2B3",
"|&	c #BCCAC8",
"1&	c #D1D4D0",
"2&	c #D1D1CE",
"3&	c #CCCCC9",
"4&	c #D1D2CF",
"5&	c #D2D4D1",
"6&	c #D2D5D2",
"7&	c #D2D4D2",
"8&	c #D3D4D2",
"9&	c #D2D2CF",
"0&	c #CDCDCA",
"                        . + @ # $ % & *                         ",
"                  = - ; > , ' ) ) ' , > ! ~ {                   ",
"              & ] ^ / ( _ : < [ } | 1 2 3 4 5 6 7               ",
"            8 9 0 a b c d e f g g f e h i b j k l m             ",
"          n o p q r s t u v w x y z A B C D E F G H I           ",
"        J K L M N O P Q R S T U V W X Y Z `  ...+.@.#.$.        ",
"      %.&.*.=.-.;.>.,.'.).!.~.{.].^./.(._.:.<.[.}.|.1.2.3.      ",
"    4.5.6.7.8.9.0.a.b.c.d.e.f.g.h.i.i.j.k.l.m.n.o.p.q.r.s.t.    ",
"    u.v.w.x.y.z.A.B.C.D.E.F.G.H.H.H.H.H.I.J.K.L.M.N.O.P.Q.R.    ",
"  u.S.T.U.V.W.X.Y.Z.`. +.+++@+@+@+@+#+$+%+&+*+=+-+;+>+,+'+)+!+  ",
"  %.~+{+]+^+/+(+_+:+<+[+}+k.|+1+2+3+4+5+6+7+8+9+0+a+b+c+d+e+f+  ",
"  g+h+i+j+k+^.l+l+m+n+o+p+q+r+s+t+u+v+w+x+y+z+z+A+B+C+D+E+F+g+  ",
"G+H+I+J+K+L+M+'.N+O+P+Q+R+S+T+U+V+W+X+Y+Z+`+ @.@+@@@#@$@%@&@*@=@",
"-@;@>@,@'@)@!@~@{@]@^@/@(@_@:@<@[@}@|@|@|@1@2@3@4@5@6@7@8@9@0@-@",
"a@b@c@d@e@f@g@!.h@{@i@j@k@l@m@n@(+q+o@p@p@p@q@r@s@t@u@v@w@x@y@z@",
"A@B@C@D@E@l.(+F@~@G@H@I@J@K@L@Z.F@q+M@F@F@(.i@i@i@!.N@O@P@Q@R@S@",
"T@U@V@W@X@Y@Y@r+Z@`@Z@ #.#+#@###q+M@Y@$#$#~@~@~@~@$#N+%#&#*#=#A@",
"-#;#>#,#'#)#!#~#{#]#^#/#(#_#:#<#[#(+{@h@h@h@h@}#|#l+1#2#3#4#5#T@",
"A@6#7#8#9#0#a#b#c#d#e#f#g#h#i#j#c.r+a#Y.Y.Y.k#k#k#l+l#m#n#o#p#a@",
"q#r#s#t#u#v#w#x#y#z#A#B#C#D#E#F#G#H#I#I#J#J#J#J#J#q+K#L#M#N#O#P#",
"  Q#R#S#T#U#V#W#X#Y#Z#`# $.$+$@$#$$$$$%$%$%$%$&$*$]@=$-$;$>$,$  ",
"  '$)$!$~${$]$M@^$/$($($_$:$<$[$}$}$|$|$|$|$1$1$~@2$3$4$5$6$7$  ",
"  8$9$0$a$b$c$d$e$f$g$h$h$i$j$k$l$l$l$l$m$n$n$o$p$q$r$s$t$u$v$  ",
"    w$x$y$z$A$B$C$D$E$F$G$G$H$I$J$J$K$L$L$L$M$!#N$O$P$Q$R$'$    ",
"    T@S$T$U$V$W$X$Y$Z$`$ %.%.%.%+%@%@%@%#%$%%%&%*%=%-%;%>%,%    ",
"      '%)%!%~%{%]%^%/%(%{@*$n$_% %:%$$l+{@<%[%}%|%1%2%3%4%      ",
"        5%6%7%8%9%0%a%b%c%d%e%r+f%g%h%i%j%k%l%m%n%o%p%5%        ",
"          q%r%s%t%u%v%w%x%y%z%A%B%C%D%E%F%G%u%H%I%J%5%          ",
"            K%L%M%N%O%P%Q%R%S%T%U%V%W%X%P%Y%Z%`% &.&            ",
"              +&@&#&$&%&&&*&=&-&=&=&;&>&,&'&)&!&~&              ",
"                  {&]&^&/&(&_&:&:&<&[&}&|&1&2&                  ",
"                        3&4&5&6&7&8&9&0&                        "};
