/* XPM */
static char * C:\data\git\riecoin\share\pixmaps\riecoin16_xpm[] = {
"16 16 190 2",
"  	c None",
". 	c #C0BCB3",
"+ 	c #B6B198",
"@ 	c #B3B199",
"# 	c #B6B098",
"$ 	c #C0BCB2",
"% 	c #BEBCB3",
"& 	c #ABAD92",
"* 	c #9DA47C",
"= 	c #A9B089",
"- 	c #B2B896",
"; 	c #9DA47B",
"> 	c #BEBBB3",
", 	c #BDBDB1",
"' 	c #919C76",
") 	c #A2AD89",
"! 	c #C8D1B1",
"~ 	c #96E0D9",
"{ 	c #83E3DC",
"] 	c #8CE5D6",
"^ 	c #8EDEDE",
"/ 	c #B1CCBE",
"( 	c #929C75",
"_ 	c #BDBCB0",
": 	c #C0BFB7",
"< 	c #859570",
"[ 	c #9FAD8E",
"} 	c #A8E2CB",
"| 	c #8AEAB3",
"1 	c #7EE8CC",
"2 	c #44DEE0",
"3 	c #34DCE5",
"4 	c #54E1D2",
"5 	c #6BE5C7",
"6 	c #9DDED3",
"7 	c #9FAC8C",
"8 	c #869570",
"9 	c #C0BEB7",
"0 	c #9AA58E",
"a 	c #819774",
"b 	c #90DDD6",
"c 	c #8DEBAF",
"d 	c #87CDB2",
"e 	c #92C5AF",
"f 	c #43DEE5",
"g 	c #38DCE3",
"h 	c #3BDDE3",
"i 	c #5BE1E7",
"j 	c #7DE8CA",
"k 	c #9FDDCE",
"l 	c #819772",
"m 	c #9CA68E",
"n 	c #C2C0B8",
"o 	c #63815E",
"p 	c #9DBEAC",
"q 	c #6CE5C5",
"r 	c #73E6BF",
"s 	c #83A07C",
"t 	c #87E7CD",
"u 	c #66E4C7",
"v 	c #72D6CA",
"w 	c #99B79D",
"x 	c #7C9165",
"y 	c #73885A",
"z 	c #98DCB4",
"A 	c #9EBBA8",
"B 	c #66835F",
"C 	c #B0B1A0",
"D 	c #517956",
"E 	c #98DECD",
"F 	c #76E7BD",
"G 	c #7FE8B8",
"H 	c #94D1AA",
"I 	c #8FB49E",
"J 	c #88B79F",
"K 	c #9AD6B3",
"L 	c #69E4CC",
"M 	c #74E4CB",
"N 	c #81AD8E",
"O 	c #8ED3AF",
"P 	c #A2DCC5",
"Q 	c #527955",
"R 	c #B1B19F",
"S 	c #9FAB9D",
"T 	c #5A8368",
"U 	c #95E5C8",
"V 	c #77E7BD",
"W 	c #8AEAB1",
"X 	c #94CBAC",
"Y 	c #8DD5B6",
"Z 	c #7FE9B8",
"` 	c #77E7BC",
" .	c #A3E6C4",
"..	c #557E62",
"+.	c #A0AC9C",
"@.	c #9CAC9F",
"#.	c #537F6A",
"$.	c #A3E7BF",
"%.	c #85EAB4",
"&.	c #8ED8B7",
"*.	c #8BCFB1",
"=.	c #76A395",
"-.	c #92DDB6",
";.	c #81E9B7",
">.	c #89EAB2",
",.	c #8BEBB0",
"'.	c #8CEBB0",
").	c #A3E6C3",
"!.	c #4D7B64",
"~.	c #9EAC9E",
"{.	c #ADB2A4",
"].	c #386F5D",
"^.	c #B4E1B9",
"/.	c #9AE7B0",
"(.	c #8FBEB0",
"_.	c #528D88",
":.	c #7DACA1",
"<.	c #98DCBE",
"[.	c #9FEEA4",
"}.	c #A0EEA4",
"|.	c #94ECAB",
"1.	c #ACDCBA",
"2.	c #376E5B",
"3.	c #ADB2A3",
"4.	c #C6C5BF",
"5.	c #3B7266",
"6.	c #93B39F",
"7.	c #93EAB4",
"8.	c #7DBFB7",
"9.	c #176D73",
"0.	c #A1CFB2",
"a.	c #AAEEA6",
"b.	c #B3F298",
"c.	c #B4F298",
"d.	c #B5F297",
"e.	c #91EBAF",
"f.	c #8EAE9B",
"g.	c #3E7366",
"h.	c #C5C4BE",
"i.	c #84A29C",
"j.	c #3A706A",
"k.	c #C6E0AB",
"l.	c #85C0A8",
"m.	c #77B397",
"n.	c #8ABC9A",
"o.	c #CBEBA4",
"p.	c #C9F58B",
"q.	c #9FEEA5",
"r.	c #B3DBB3",
"s.	c #376E66",
"t.	c #87A39D",
"u.	c #C4C6C2",
"v.	c #447A77",
"w.	c #4C7B78",
"x.	c #CCE1A2",
"y.	c #9FEEA6",
"z.	c #B2F199",
"A.	c #DBF880",
"B.	c #DDF97F",
"C.	c #BCF393",
"D.	c #9CEDA8",
"E.	c #B5DBB0",
"F.	c #487874",
"G.	c #477C78",
"H.	c #BDC4C2",
"I.	c #3F7677",
"J.	c #2E6768",
"K.	c #93AD96",
"L.	c #C4E0A9",
"M.	c #A9E6B7",
"N.	c #A8E5B8",
"O.	c #BADDAE",
"P.	c #8FAA95",
"Q.	c #2B6566",
"R.	c #417879",
"S.	c #BDC4C0",
"T.	c #C3C7C3",
"U.	c #7C9E9F",
"V.	c #226166",
"W.	c #13555B",
"X.	c #2A6368",
"Y.	c #296367",
"Z.	c #236267",
"`.	c #7D9FA0",
" +	c #C4C7C3",
".+	c #C8C9C6",
"++	c #A7B3AC",
"@+	c #90A9A7",
"#+	c #90A9A8",
"$+	c #C8C9C5",
"          . + @ @ # $           ",
"      % & * = - - = ; & >       ",
"    , ' ) ! ~ { ] ^ / ) ( _     ",
"  : < [ } | 1 2 3 4 5 6 7 8 9   ",
"  0 a b c d e f g h i j k l m   ",
"n o p q r s t u v w x y z A B n ",
"C D E F G H I J K L M N O P Q R ",
"S T U V W V X Y Z ` F V `  ...+.",
"@.#.$.%.&.*.=.-.;.>.,.'.'.).!.~.",
"{.].^./.(._.:.<.;.[.}.}.|.1.2.3.",
"4.5.6.7.8.9.0.a.b.c.d.d.e.f.g.h.",
"  i.j.k.l.m.n.o.p.p.p.q.r.s.t.  ",
"  u.v.w.x.y.z.A.B.C.D.E.F.G.u.  ",
"    H.I.J.K.L.M.N.O.P.Q.R.S.    ",
"      T.U.V.W.X.Y.W.Z.`. +      ",
"          .+++@+#+++$+          "};
